<mxfile host="app.diagrams.net" agent="Mozilla/5.0 (Windows NT 10.0; Win64; x64) AppleWebKit/537.36 (KHTML, like Gecko) Chrome/137.0.0.0 Safari/537.36" version="27.1.5">
  <diagram id="vlCdZQs1aoYzZf11PDD5" name="Page-1">
    <mxGraphModel dx="3801" dy="1624" grid="1" gridSize="10" guides="1" tooltips="1" connect="1" arrows="1" fold="1" page="1" pageScale="1" pageWidth="850" pageHeight="1100" math="0" shadow="0">
      <root>
        <mxCell id="0" />
        <mxCell id="1" parent="0" />
        <mxCell id="Kb3So-zx0qiVTwi16XQV-8" value="&lt;font style=&quot;font-size: 16px;&quot;&gt;Backend&lt;/font&gt;" style="swimlane;whiteSpace=wrap;html=1;fillStyle=auto;swimlaneFillColor=#E6E6E6;strokeColor=#000000;glass=0;" vertex="1" parent="1">
          <mxGeometry x="-800" y="180" width="1080" height="830" as="geometry" />
        </mxCell>
        <mxCell id="LUt_MsUrd22hMiRjjslL-7" value="Identity Server - Logistics.IdentityServer&lt;br&gt;(OIDC app,&lt;br&gt;ASP.NET Core framework)" style="rounded=1;whiteSpace=wrap;html=1;" parent="Kb3So-zx0qiVTwi16XQV-8" vertex="1">
          <mxGeometry x="315" y="55" width="250" height="70" as="geometry" />
        </mxCell>
        <mxCell id="Kb3So-zx0qiVTwi16XQV-9" style="edgeStyle=orthogonalEdgeStyle;rounded=0;orthogonalLoop=1;jettySize=auto;html=1;" edge="1" parent="Kb3So-zx0qiVTwi16XQV-8" source="LUt_MsUrd22hMiRjjslL-9" target="LUt_MsUrd22hMiRjjslL-17">
          <mxGeometry relative="1" as="geometry">
            <Array as="points">
              <mxPoint x="115" y="200" />
              <mxPoint x="240" y="200" />
            </Array>
          </mxGeometry>
        </mxCell>
        <mxCell id="Kb3So-zx0qiVTwi16XQV-25" style="edgeStyle=orthogonalEdgeStyle;rounded=0;orthogonalLoop=1;jettySize=auto;html=1;entryX=0.288;entryY=0;entryDx=0;entryDy=0;entryPerimeter=0;jumpStyle=arc;" edge="1" parent="Kb3So-zx0qiVTwi16XQV-8" source="LUt_MsUrd22hMiRjjslL-9" target="LUt_MsUrd22hMiRjjslL-21">
          <mxGeometry relative="1" as="geometry">
            <mxPoint x="710" y="250" as="targetPoint" />
            <Array as="points">
              <mxPoint x="130" y="150" />
              <mxPoint x="711" y="150" />
            </Array>
          </mxGeometry>
        </mxCell>
        <mxCell id="LUt_MsUrd22hMiRjjslL-9" value="REST API - Logistics.API&lt;br&gt;(RESTfull app,&lt;br&gt;ASP.NET Core framework)" style="rounded=1;whiteSpace=wrap;html=1;" parent="Kb3So-zx0qiVTwi16XQV-8" vertex="1">
          <mxGeometry x="30" y="55" width="170" height="70" as="geometry" />
        </mxCell>
        <mxCell id="Kb3So-zx0qiVTwi16XQV-14" style="edgeStyle=orthogonalEdgeStyle;rounded=0;orthogonalLoop=1;jettySize=auto;html=1;" edge="1" parent="Kb3So-zx0qiVTwi16XQV-8" source="LUt_MsUrd22hMiRjjslL-17" target="LUt_MsUrd22hMiRjjslL-20">
          <mxGeometry relative="1" as="geometry">
            <Array as="points">
              <mxPoint x="265" y="510" />
              <mxPoint x="390" y="510" />
            </Array>
          </mxGeometry>
        </mxCell>
        <mxCell id="Kb3So-zx0qiVTwi16XQV-21" style="edgeStyle=orthogonalEdgeStyle;rounded=0;orthogonalLoop=1;jettySize=auto;html=1;" edge="1" parent="Kb3So-zx0qiVTwi16XQV-8" source="LUt_MsUrd22hMiRjjslL-17" target="Kb3So-zx0qiVTwi16XQV-2">
          <mxGeometry relative="1" as="geometry" />
        </mxCell>
        <mxCell id="LUt_MsUrd22hMiRjjslL-17" value="Application Layer - Logistics.Application&lt;br&gt;(CQRS and services implementations)" style="rounded=1;whiteSpace=wrap;html=1;" parent="Kb3So-zx0qiVTwi16XQV-8" vertex="1">
          <mxGeometry x="160" y="270" width="210" height="70" as="geometry" />
        </mxCell>
        <mxCell id="LUt_MsUrd22hMiRjjslL-18" value="Shared Constants - Logistics.Consts (Common global constants and enums)" style="rounded=1;whiteSpace=wrap;html=1;" parent="Kb3So-zx0qiVTwi16XQV-8" vertex="1">
          <mxGeometry x="290" y="710" width="200" height="70" as="geometry" />
        </mxCell>
        <mxCell id="Kb3So-zx0qiVTwi16XQV-15" style="edgeStyle=orthogonalEdgeStyle;rounded=0;orthogonalLoop=1;jettySize=auto;html=1;" edge="1" parent="Kb3So-zx0qiVTwi16XQV-8" source="LUt_MsUrd22hMiRjjslL-20" target="LUt_MsUrd22hMiRjjslL-18">
          <mxGeometry relative="1" as="geometry" />
        </mxCell>
        <mxCell id="LUt_MsUrd22hMiRjjslL-20" value="Domain - Logistics.Domain&lt;br&gt;(Entities, value objects, domain events)" style="rounded=1;whiteSpace=wrap;html=1;" parent="Kb3So-zx0qiVTwi16XQV-8" vertex="1">
          <mxGeometry x="290" y="570" width="200" height="70" as="geometry" />
        </mxCell>
        <mxCell id="Kb3So-zx0qiVTwi16XQV-22" style="edgeStyle=orthogonalEdgeStyle;rounded=0;orthogonalLoop=1;jettySize=auto;html=1;entryX=1;entryY=0.5;entryDx=0;entryDy=0;jumpStyle=arc;jumpSize=6;" edge="1" parent="Kb3So-zx0qiVTwi16XQV-8" source="LUt_MsUrd22hMiRjjslL-21" target="LUt_MsUrd22hMiRjjslL-20">
          <mxGeometry relative="1" as="geometry">
            <Array as="points">
              <mxPoint x="740" y="605" />
            </Array>
          </mxGeometry>
        </mxCell>
        <mxCell id="LUt_MsUrd22hMiRjjslL-21" value="Infrastructure Layer - Logistics.Infrastructure.EF&lt;br&gt;(Entity Framework, database contexts)" style="rounded=1;whiteSpace=wrap;html=1;" parent="Kb3So-zx0qiVTwi16XQV-8" vertex="1">
          <mxGeometry x="645" y="270" width="230" height="70" as="geometry" />
        </mxCell>
        <mxCell id="cQ4H504q-O8ts6UtnCCo-5" value="Shared Models - Logistics.Models (DTO classes)" style="rounded=1;whiteSpace=wrap;html=1;" parent="Kb3So-zx0qiVTwi16XQV-8" vertex="1">
          <mxGeometry x="710" y="710" width="200" height="70" as="geometry" />
        </mxCell>
        <mxCell id="Kb3So-zx0qiVTwi16XQV-13" style="edgeStyle=orthogonalEdgeStyle;rounded=0;orthogonalLoop=1;jettySize=auto;html=1;" edge="1" parent="Kb3So-zx0qiVTwi16XQV-8" source="Kb3So-zx0qiVTwi16XQV-1" target="LUt_MsUrd22hMiRjjslL-21">
          <mxGeometry relative="1" as="geometry" />
        </mxCell>
        <mxCell id="Kb3So-zx0qiVTwi16XQV-1" value="DB Migrator - Logistics.DbMigrator&lt;br&gt;(Database migration and seeding service,&lt;br&gt;ASP.NET Core framework)" style="rounded=1;whiteSpace=wrap;html=1;" vertex="1" parent="Kb3So-zx0qiVTwi16XQV-8">
          <mxGeometry x="637.5" y="55" width="245" height="70" as="geometry" />
        </mxCell>
        <mxCell id="Kb3So-zx0qiVTwi16XQV-17" style="edgeStyle=orthogonalEdgeStyle;rounded=0;orthogonalLoop=1;jettySize=auto;html=1;jumpStyle=arc;" edge="1" parent="Kb3So-zx0qiVTwi16XQV-8" source="Kb3So-zx0qiVTwi16XQV-2" target="cQ4H504q-O8ts6UtnCCo-5">
          <mxGeometry relative="1" as="geometry">
            <Array as="points">
              <mxPoint x="520" y="510" />
              <mxPoint x="810" y="510" />
            </Array>
          </mxGeometry>
        </mxCell>
        <mxCell id="Kb3So-zx0qiVTwi16XQV-2" value="DTO Mappings - Logistics.Mappings&lt;br&gt;(Mappers between entities and DTO objects)" style="rounded=1;whiteSpace=wrap;html=1;" vertex="1" parent="Kb3So-zx0qiVTwi16XQV-8">
          <mxGeometry x="410" y="370" width="200" height="70" as="geometry" />
        </mxCell>
        <mxCell id="Kb3So-zx0qiVTwi16XQV-10" style="edgeStyle=orthogonalEdgeStyle;rounded=0;orthogonalLoop=1;jettySize=auto;html=1;entryX=0.597;entryY=0.014;entryDx=0;entryDy=0;entryPerimeter=0;jumpStyle=arc;" edge="1" parent="Kb3So-zx0qiVTwi16XQV-8" source="LUt_MsUrd22hMiRjjslL-7" target="LUt_MsUrd22hMiRjjslL-17">
          <mxGeometry relative="1" as="geometry">
            <Array as="points">
              <mxPoint x="440" y="200" />
              <mxPoint x="285" y="200" />
            </Array>
          </mxGeometry>
        </mxCell>
        <mxCell id="Kb3So-zx0qiVTwi16XQV-20" style="edgeStyle=orthogonalEdgeStyle;rounded=0;orthogonalLoop=1;jettySize=auto;html=1;entryX=0.58;entryY=0.01;entryDx=0;entryDy=0;entryPerimeter=0;" edge="1" parent="Kb3So-zx0qiVTwi16XQV-8" source="Kb3So-zx0qiVTwi16XQV-2" target="LUt_MsUrd22hMiRjjslL-20">
          <mxGeometry relative="1" as="geometry">
            <Array as="points">
              <mxPoint x="510" y="510" />
              <mxPoint x="406" y="510" />
            </Array>
          </mxGeometry>
        </mxCell>
        <mxCell id="Kb3So-zx0qiVTwi16XQV-23" style="edgeStyle=orthogonalEdgeStyle;rounded=0;orthogonalLoop=1;jettySize=auto;html=1;entryX=-0.001;entryY=0.61;entryDx=0;entryDy=0;entryPerimeter=0;jumpStyle=arc;" edge="1" parent="Kb3So-zx0qiVTwi16XQV-8" source="LUt_MsUrd22hMiRjjslL-7" target="LUt_MsUrd22hMiRjjslL-21">
          <mxGeometry relative="1" as="geometry">
            <Array as="points">
              <mxPoint x="450" y="200" />
              <mxPoint x="605" y="200" />
              <mxPoint x="605" y="313" />
            </Array>
          </mxGeometry>
        </mxCell>
        <mxCell id="Kb3So-zx0qiVTwi16XQV-52" style="edgeStyle=orthogonalEdgeStyle;rounded=0;orthogonalLoop=1;jettySize=auto;html=1;dashed=1;" edge="1" parent="1" source="Kb3So-zx0qiVTwi16XQV-47" target="Kb3So-zx0qiVTwi16XQV-8">
          <mxGeometry relative="1" as="geometry" />
        </mxCell>
        <mxCell id="Kb3So-zx0qiVTwi16XQV-53" value="Implicit Dependency" style="edgeLabel;html=1;align=center;verticalAlign=middle;resizable=0;points=[];fontSize=12;" vertex="1" connectable="0" parent="Kb3So-zx0qiVTwi16XQV-52">
          <mxGeometry x="-0.0667" y="2" relative="1" as="geometry">
            <mxPoint y="-2" as="offset" />
          </mxGeometry>
        </mxCell>
        <mxCell id="Kb3So-zx0qiVTwi16XQV-47" value="Client Apps" style="swimlane;whiteSpace=wrap;html=1;swimlaneFillColor=#E6E6E6;" vertex="1" parent="1">
          <mxGeometry x="460" y="180" width="1080" height="830" as="geometry" />
        </mxCell>
        <mxCell id="LUt_MsUrd22hMiRjjslL-3" value="Driver App - Logistics.DriverApp&lt;br&gt;(Tenant mobile app,&lt;br&gt;MAUI framework)" style="rounded=1;whiteSpace=wrap;html=1;" parent="Kb3So-zx0qiVTwi16XQV-47" vertex="1">
          <mxGeometry x="490" y="65" width="190" height="70" as="geometry" />
        </mxCell>
        <mxCell id="LUt_MsUrd22hMiRjjslL-5" value="Office App - Logistics.OfficeApp&lt;br&gt;(Tenant web app,&lt;br&gt;Angular framework)" style="rounded=1;whiteSpace=wrap;html=1;" parent="Kb3So-zx0qiVTwi16XQV-47" vertex="1">
          <mxGeometry x="20" y="65" width="190" height="70" as="geometry" />
        </mxCell>
        <mxCell id="LUt_MsUrd22hMiRjjslL-6" value="Admin App - Logistics.AdminApp&lt;br&gt;(Admin web app,&lt;br&gt;Blazor framework)" style="rounded=1;whiteSpace=wrap;html=1;" parent="Kb3So-zx0qiVTwi16XQV-47" vertex="1">
          <mxGeometry x="240" y="65" width="200" height="70" as="geometry" />
        </mxCell>
        <mxCell id="LUt_MsUrd22hMiRjjslL-8" value=".NET Client Library - Logistics.HttpClient" style="rounded=1;whiteSpace=wrap;html=1;" parent="Kb3So-zx0qiVTwi16XQV-47" vertex="1">
          <mxGeometry x="20" y="180" width="180" height="70" as="geometry" />
        </mxCell>
        <mxCell id="Kb3So-zx0qiVTwi16XQV-49" style="edgeStyle=orthogonalEdgeStyle;rounded=0;orthogonalLoop=1;jettySize=auto;html=1;" edge="1" parent="1" source="Kb3So-zx0qiVTwi16XQV-48" target="Kb3So-zx0qiVTwi16XQV-8">
          <mxGeometry relative="1" as="geometry" />
        </mxCell>
        <mxCell id="Kb3So-zx0qiVTwi16XQV-50" style="edgeStyle=orthogonalEdgeStyle;rounded=0;orthogonalLoop=1;jettySize=auto;html=1;" edge="1" parent="1" source="Kb3So-zx0qiVTwi16XQV-48" target="Kb3So-zx0qiVTwi16XQV-47">
          <mxGeometry relative="1" as="geometry">
            <Array as="points">
              <mxPoint x="340" y="135" />
              <mxPoint x="940" y="135" />
            </Array>
          </mxGeometry>
        </mxCell>
        <mxCell id="Kb3So-zx0qiVTwi16XQV-48" value="Aspire App - Logistics.Aspire&lt;br&gt;(Orchestrate apps and services in containers)" style="rounded=1;whiteSpace=wrap;html=1;" vertex="1" parent="1">
          <mxGeometry x="230" y="20" width="190" height="70" as="geometry" />
        </mxCell>
        <mxCell id="Kb3So-zx0qiVTwi16XQV-55" value="Communication via HTTP" style="text;html=1;align=center;verticalAlign=middle;whiteSpace=wrap;rounded=0;" vertex="1" parent="1">
          <mxGeometry x="320" y="610" width="120" height="30" as="geometry" />
        </mxCell>
      </root>
    </mxGraphModel>
  </diagram>
</mxfile>
